# xmcd
#
# Track frame offsets:
#	150
#	19434
#	38240
#	58714
#	75118
#	93095
#	116651
#	134004
#	140396
#	165197
#	183708
#
# Disc length: 2726 seconds
#
# Revision: 0
# Processed by: cddbd v1.5.2PL0 Copyright (c) Steve Scherf et al.
# Submitted via: EZCDAudioConverter 3.1.2.1
#
DISCID=8b0aa40b
DTITLE=Robin Auld - Ocean Motion
DYEAR=1900
DGENRE=Pop
TTITLE0=After the Fire
TTITLE1=She's a Tease
TTITLE2=All of Woman
TTITLE3=Let the Guitar do the Talking
TTITLE4=Walking the Wheel
TTITLE5=Village is a House
TTITLE6=Leon
TTITLE7=There is a Wind
TTITLE8=Sisheke Town
TTITLE9=Baby you've been Good
TTITLE10=You've got them all
EXTD=
EXTT0=
EXTT1=
EXTT2=
EXTT3=
EXTT4=
EXTT5=
EXTT6=
EXTT7=
EXTT8=
EXTT9=
EXTT10=
PLAYORDER=
